# Blender v2.81 (sub 16) OBJ File: ''
# www.blender.org
mtllib rose.mtl
o Cylinder
v 0.000000 -1.000000 -1.000000
v 0.000000 1.000000 -1.000000
v 0.195090 -1.000000 -0.980785
v 0.195090 1.000000 -0.980785
v 0.382683 -1.000000 -0.923880
v 0.382683 1.000000 -0.923880
v 0.555570 -1.000000 -0.831470
v 0.555570 1.000000 -0.831470
v 0.707107 -1.000000 -0.707107
v 0.707107 1.000000 -0.707107
v 0.831470 -1.000000 -0.555570
v 0.831470 1.000000 -0.555570
v 0.923880 -1.000000 -0.382683
v 0.923880 1.000000 -0.382683
v 0.980785 -1.000000 -0.195090
v 0.980785 1.000000 -0.195090
v 1.000000 -1.000000 -0.000000
v 1.000000 1.000000 -0.000000
v 0.980785 -1.000000 0.195090
v 0.980785 1.000000 0.195090
v 0.923880 -1.000000 0.382683
v 0.923880 1.000000 0.382683
v 0.831470 -1.000000 0.555570
v 0.831470 1.000000 0.555570
v 0.707107 -1.000000 0.707107
v 0.707107 1.000000 0.707107
v 0.555570 -1.000000 0.831470
v 0.555570 1.000000 0.831470
v 0.382683 -1.000000 0.923880
v 0.382683 1.000000 0.923880
v 0.195090 -1.000000 0.980785
v 0.195090 1.000000 0.980785
v -0.000000 -1.000000 1.000000
v -0.000000 1.000000 1.000000
v -0.195091 -1.000000 0.980785
v -0.195091 1.000000 0.980785
v -0.382684 -1.000000 0.923879
v -0.382684 1.000000 0.923879
v -0.555571 -1.000000 0.831469
v -0.555571 1.000000 0.831469
v -0.707107 -1.000000 0.707106
v -0.707107 1.000000 0.707106
v -0.831470 -1.000000 0.555570
v -0.831470 1.000000 0.555570
v -0.923880 -1.000000 0.382683
v -0.923880 1.000000 0.382683
v -0.980785 -1.000000 0.195089
v -0.980785 1.000000 0.195089
v -1.000000 -1.000000 -0.000001
v -1.000000 1.000000 -0.000001
v -0.980785 -1.000000 -0.195091
v -0.980785 1.000000 -0.195091
v -0.923879 -1.000000 -0.382684
v -0.923879 1.000000 -0.382684
v -0.831469 -1.000000 -0.555571
v -0.831469 1.000000 -0.555571
v -0.707106 -1.000000 -0.707108
v -0.707106 1.000000 -0.707108
v -0.555569 -1.000000 -0.831470
v -0.555569 1.000000 -0.831470
v -0.382682 -1.000000 -0.923880
v -0.382682 1.000000 -0.923880
v -0.195089 -1.000000 -0.980786
v -0.195089 1.000000 -0.980786
vt 0.557768 0.000000
vt 0.557768 0.334407
vt 0.519555 0.334407
vt 0.519555 0.000000
vt 0.482077 0.334407
vt 0.482077 0.000000
vt 0.446773 0.334407
vt 0.446773 0.000000
vt 0.415000 0.334407
vt 0.415000 0.000000
vt 0.387980 0.334407
vt 0.387980 0.000000
vt 0.247323 0.665593
vt 0.247323 1.000000
vt 0.215550 1.000000
vt 0.215550 0.665593
vt 0.180246 1.000000
vt 0.180246 0.665593
vt 0.142768 1.000000
vt 0.142768 0.665593
vt 0.104555 1.000000
vt 0.104555 0.665593
vt 0.067077 1.000000
vt 0.067077 0.665593
vt 0.031773 1.000000
vt 0.031773 0.665593
vt 0.000000 1.000000
vt 0.000000 0.665593
vt 0.662323 0.668814
vt 0.662323 0.334407
vt 0.694096 0.334407
vt 0.694096 0.668814
vt 0.729400 0.334407
vt 0.729400 0.668814
vt 0.766878 0.334407
vt 0.766878 0.668814
vt 0.805091 0.334407
vt 0.805091 0.668814
vt 0.842569 0.334407
vt 0.842570 0.668814
vt 0.877873 0.334407
vt 0.877873 0.668814
vt 0.909646 0.334407
vt 0.909646 0.668814
vt 0.936667 0.334407
vt 0.936667 0.668814
vt 0.387980 0.668814
vt 0.387980 0.334407
vt 0.419753 0.334407
vt 0.419753 0.668814
vt 0.455057 0.334407
vt 0.455057 0.668814
vt 0.492535 0.334407
vt 0.492535 0.668814
vt 0.530748 0.334407
vt 0.530748 0.668814
vt 0.568226 0.334407
vt 0.568226 0.668814
vt 0.603530 0.334407
vt 0.603530 0.668814
vt 0.635303 0.334407
vt 0.635303 0.668814
vt 0.662323 0.334407
vt 0.662323 0.668814
vt 0.689343 0.000000
vt 0.689343 0.334407
vt 0.662323 0.334407
vt 0.662323 0.000000
vt 0.630550 0.334407
vt 0.630550 0.000000
vt 0.174884 0.665593
vt 0.137405 0.659199
vt 0.102101 0.646655
vt 0.070329 0.628445
vt 0.043308 0.605268
vt 0.022078 0.578014
vt 0.007455 0.547732
vt 0.000000 0.515584
vt 0.000000 0.482806
vt 0.007455 0.450658
vt 0.022078 0.420376
vt 0.043308 0.393122
vt 0.070328 0.369945
vt 0.102101 0.351735
vt 0.137405 0.339191
vt 0.174884 0.332797
vt 0.213096 0.332797
vt 0.250575 0.339191
vt 0.285879 0.351735
vt 0.317651 0.369945
vt 0.344672 0.393122
vt 0.365902 0.420376
vt 0.380525 0.450658
vt 0.387980 0.482806
vt 0.387980 0.515584
vt 0.380525 0.547731
vt 0.365902 0.578014
vt 0.344672 0.605268
vt 0.317651 0.628445
vt 0.285879 0.646655
vt 0.250575 0.659199
vt 0.213096 0.665593
vt 0.595246 0.334407
vt 0.595246 0.000000
vt 0.000000 0.182787
vt 0.000000 0.150010
vt 0.007455 0.117862
vt 0.022078 0.087579
vt 0.043308 0.060326
vt 0.070329 0.037148
vt 0.102101 0.018938
vt 0.137405 0.006395
vt 0.174884 0.000000
vt 0.213096 0.000000
vt 0.250575 0.006395
vt 0.285879 0.018938
vt 0.317651 0.037148
vt 0.344672 0.060326
vt 0.365902 0.087579
vt 0.380525 0.117862
vt 0.387980 0.150009
vt 0.387980 0.182787
vt 0.380525 0.214935
vt 0.365902 0.245217
vt 0.344672 0.272471
vt 0.317651 0.295648
vt 0.285879 0.313859
vt 0.250575 0.326402
vt 0.213096 0.332797
vt 0.174883 0.332797
vt 0.137405 0.326402
vt 0.102101 0.313858
vt 0.070328 0.295648
vt 0.043308 0.272471
vt 0.022078 0.245217
vt 0.007455 0.214935
vn 0.0980 0.0000 -0.9952
vn 0.2903 0.0000 -0.9569
vn 0.4714 0.0000 -0.8819
vn 0.6344 0.0000 -0.7730
vn 0.7730 0.0000 -0.6344
vn 0.8819 0.0000 -0.4714
vn 0.9569 0.0000 -0.2903
vn 0.9952 0.0000 -0.0980
vn 0.9952 0.0000 0.0980
vn 0.9569 0.0000 0.2903
vn 0.8819 0.0000 0.4714
vn 0.7730 0.0000 0.6344
vn 0.6344 0.0000 0.7730
vn 0.4714 0.0000 0.8819
vn 0.2903 0.0000 0.9569
vn 0.0980 0.0000 0.9952
vn -0.0980 0.0000 0.9952
vn -0.2903 0.0000 0.9569
vn -0.4714 0.0000 0.8819
vn -0.6344 0.0000 0.7730
vn -0.7730 0.0000 0.6344
vn -0.8819 0.0000 0.4714
vn -0.9569 0.0000 0.2903
vn -0.9952 0.0000 0.0980
vn -0.9952 0.0000 -0.0980
vn -0.9569 0.0000 -0.2903
vn -0.8819 0.0000 -0.4714
vn -0.7730 0.0000 -0.6344
vn -0.6344 0.0000 -0.7730
vn -0.4714 0.0000 -0.8819
vn 0.0000 1.0000 0.0000
vn -0.2903 0.0000 -0.9569
vn -0.0980 0.0000 -0.9952
vn 0.0000 -1.0000 -0.0000
usemtl mat
s off
f 1/1/1 2/2/1 4/3/1 3/4/1
f 3/4/2 4/3/2 6/5/2 5/6/2
f 5/6/3 6/5/3 8/7/3 7/8/3
f 7/8/4 8/7/4 10/9/4 9/10/4
f 9/10/5 10/9/5 12/11/5 11/12/5
f 11/13/6 12/14/6 14/15/6 13/16/6
f 13/16/7 14/15/7 16/17/7 15/18/7
f 15/18/8 16/17/8 18/19/8 17/20/8
f 17/20/9 18/19/9 20/21/9 19/22/9
f 19/22/10 20/21/10 22/23/10 21/24/10
f 21/24/11 22/23/11 24/25/11 23/26/11
f 23/26/12 24/25/12 26/27/12 25/28/12
f 25/29/13 26/30/13 28/31/13 27/32/13
f 27/32/14 28/31/14 30/33/14 29/34/14
f 29/34/15 30/33/15 32/35/15 31/36/15
f 31/36/16 32/35/16 34/37/16 33/38/16
f 33/38/17 34/37/17 36/39/17 35/40/17
f 35/40/18 36/39/18 38/41/18 37/42/18
f 37/42/19 38/41/19 40/43/19 39/44/19
f 39/44/20 40/43/20 42/45/20 41/46/20
f 41/47/21 42/48/21 44/49/21 43/50/21
f 43/50/22 44/49/22 46/51/22 45/52/22
f 45/52/23 46/51/23 48/53/23 47/54/23
f 47/54/24 48/53/24 50/55/24 49/56/24
f 49/56/25 50/55/25 52/57/25 51/58/25
f 51/58/26 52/57/26 54/59/26 53/60/26
f 53/60/27 54/59/27 56/61/27 55/62/27
f 55/62/28 56/61/28 58/63/28 57/64/28
f 57/65/29 58/66/29 60/67/29 59/68/29
f 59/68/30 60/67/30 62/69/30 61/70/30
f 4/71/31 2/72/31 64/73/31 62/74/31 60/75/31 58/76/31 56/77/31 54/78/31 52/79/31 50/80/31 48/81/31 46/82/31 44/83/31 42/84/31 40/85/31 38/86/31 36/87/31 34/88/31 32/89/31 30/90/31 28/91/31 26/92/31 24/93/31 22/94/31 20/95/31 18/96/31 16/97/31 14/98/31 12/99/31 10/100/31 8/101/31 6/102/31
f 61/70/32 62/69/32 64/103/32 63/104/32
f 63/104/33 64/103/33 2/2/33 1/1/33
f 1/105/34 3/106/34 5/107/34 7/108/34 9/109/34 11/110/34 13/111/34 15/112/34 17/113/34 19/114/34 21/115/34 23/116/34 25/117/34 27/118/34 29/119/34 31/120/34 33/121/34 35/122/34 37/123/34 39/124/34 41/125/34 43/126/34 45/127/34 47/128/34 49/129/34 51/130/34 53/131/34 55/132/34 57/133/34 59/134/34 61/135/34 63/136/34
